<svg width="390" height="32" viewBox="0 0 390 32" fill="none" xmlns="http://www.w3.org/2000/svg">
<path d="M373.75 0H390V16H373.75V0Z" fill="#212121"/>
<rect x="357.5" width="16.25" height="16" fill="#E7B943" fill-opacity="0.78"/>
<path d="M341.25 0H357.5V16H341.25V0Z" fill="#212121"/>
<rect x="325" width="16.25" height="16" fill="#E7B943" fill-opacity="0.78"/>
<path d="M308.75 0H325V16H308.75V0Z" fill="#212121"/>
<rect x="292.5" width="16.25" height="16" fill="#E7B943" fill-opacity="0.78"/>
<path d="M276.25 0H292.5V16H276.25V0Z" fill="#212121"/>
<rect x="260" width="16.25" height="16" fill="#E7B943" fill-opacity="0.78"/>
<path d="M243.75 0H260V16H243.75V0Z" fill="#212121"/>
<rect x="227.5" width="16.25" height="16" fill="#E7B943" fill-opacity="0.78"/>
<path d="M211.25 0H227.5V16H211.25V0Z" fill="#212121"/>
<rect x="195" width="16.25" height="16" fill="#E7B943" fill-opacity="0.78"/>
<path d="M178.75 0H195V16H178.75V0Z" fill="#212121"/>
<rect x="162.5" width="16.25" height="16" fill="#E7B943" fill-opacity="0.78"/>
<path d="M146.25 0H162.5V16H146.25V0Z" fill="#212121"/>
<rect x="130" width="16.25" height="16" fill="#E7B943" fill-opacity="0.78"/>
<path d="M113.75 0H130V16H113.75V0Z" fill="#212121"/>
<rect x="97.5" width="16.25" height="16" fill="#E7B943" fill-opacity="0.78"/>
<path d="M81.25 0H97.5V16H81.25V0Z" fill="#212121"/>
<rect x="65" width="16.25" height="16" fill="#E7B943" fill-opacity="0.78"/>
<path d="M48.75 0H65V16H48.75V0Z" fill="#212121"/>
<rect x="32.5" width="16.25" height="16" fill="#E7B943" fill-opacity="0.78"/>
<path d="M16.25 0H32.5V16H16.25V0Z" fill="#212121"/>
<rect width="16.25" height="16" fill="#E7B943" fill-opacity="0.78"/>
<path d="M357.5 16H373.75V32H357.5V16Z" fill="#212121"/>
<rect x="341.25" y="16" width="16.25" height="16" fill="#E7B943" fill-opacity="0.78"/>
<path d="M325 16H341.25V32H325V16Z" fill="#212121"/>
<rect x="308.75" y="16" width="16.25" height="16" fill="#E7B943" fill-opacity="0.78"/>
<path d="M292.5 16H308.75V32H292.5V16Z" fill="#212121"/>
<rect x="276.25" y="16" width="16.25" height="16" fill="#E7B943" fill-opacity="0.78"/>
<path d="M260 16H276.25V32H260V16Z" fill="#212121"/>
<rect x="243.75" y="16" width="16.25" height="16" fill="#E7B943" fill-opacity="0.78"/>
<path d="M227.5 16H243.75V32H227.5V16Z" fill="#212121"/>
<rect x="211.25" y="16" width="16.25" height="16" fill="#E7B943" fill-opacity="0.78"/>
<path d="M195 16H211.25V32H195V16Z" fill="#212121"/>
<rect x="178.75" y="16" width="16.25" height="16" fill="#E7B943" fill-opacity="0.78"/>
<path d="M162.5 16H178.75V32H162.5V16Z" fill="#212121"/>
<rect x="146.25" y="16" width="16.25" height="16" fill="#E7B943" fill-opacity="0.78"/>
<path d="M130 16H146.25V32H130V16Z" fill="#212121"/>
<rect x="113.75" y="16" width="16.25" height="16" fill="#E7B943" fill-opacity="0.78"/>
<path d="M97.5 16H113.75V32H97.5V16Z" fill="#212121"/>
<rect x="81.25" y="16" width="16.25" height="16" fill="#E7B943" fill-opacity="0.78"/>
<path d="M65 16H81.25V32H65V16Z" fill="#212121"/>
<rect x="48.75" y="16" width="16.25" height="16" fill="#E7B943" fill-opacity="0.78"/>
<path d="M32.5 16H48.75V32H32.5V16Z" fill="#212121"/>
<rect x="16.25" y="16" width="16.25" height="16" fill="#E7B943" fill-opacity="0.78"/>
<path d="M0 16H16.25V32H0V16Z" fill="#212121"/>
<rect x="373.75" y="16" width="16.25" height="16" fill="#E7B943" fill-opacity="0.78"/>
</svg>
